HIERARCHY
ROOT Hips
{
  OFFSET -84.1146 83.6595 -65.2804
  CHANNELS 6 Xposition Yposition Zposition Zrotation Xrotation Yrotation
  JOINT RightUpLeg
  {
    OFFSET -8.9458 -8.66707 0.101652
    CHANNELS 3 Zrotation Xrotation Yrotation
    JOINT RightLeg
    {
      OFFSET 0 -44.4227 1.3727
      CHANNELS 3 Zrotation Xrotation Yrotation
      JOINT RightFoot
      {
        OFFSET 0.253549 -42.0924 -1.46059
        CHANNELS 3 Zrotation Xrotation Yrotation
        JOINT RightToes
        {
          OFFSET 0.04 -4.41509 8.4991
          CHANNELS 3 Zrotation Xrotation Yrotation
          End Site
          {
            OFFSET -0.08 -0.137448 9.77979
          }
        }
      }
    }
  }
  JOINT Spine
  {
    OFFSET 0 11.8905 0
    CHANNELS 3 Zrotation Xrotation Yrotation
    JOINT Spine1
    {
      OFFSET 0 25.6574 0.127663
      CHANNELS 3 Zrotation Xrotation Yrotation
      JOINT HEad
      {
        OFFSET 0 8.73416 0.011341
        CHANNELS 3 Zrotation Xrotation Yrotation
        End Site
        {
          OFFSET -0.29 12.7742 2.51395
        }
      }
      JOINT LeftShoulder1
      {
        OFFSET 8.99 -0.362252 -0.22
        CHANNELS 3 Zrotation Xrotation Yrotation
        JOINT LeftArm
        {
          OFFSET 10.2827 -0.00338 0.322123
          CHANNELS 3 Zrotation Xrotation Yrotation
          JOINT LeftForeArm
          {
            OFFSET 32.7669 0.099144 -1.42434
            CHANNELS 3 Zrotation Xrotation Yrotation
            JOINT LeftHand
            {
              OFFSET 27.5643 0.085362 1.02216
              CHANNELS 3 Zrotation Xrotation Yrotation
              End Site
              {
                OFFSET 16.7443 -0.6 1.50291
              }
            }
          }
        }
      }
      JOINT RightShoulder
      {
        OFFSET -8.99 -0.362252 -0.22
        CHANNELS 3 Zrotation Xrotation Yrotation
        JOINT RightArm
        {
          OFFSET -10.2827 -0.00338 0.322123
          CHANNELS 3 Zrotation Xrotation Yrotation
          JOINT RightForeArm
          {
            OFFSET -32.8971 0.099144 -1.42434
            CHANNELS 3 Zrotation Xrotation Yrotation
            JOINT RightHand
            {
              OFFSET -27.4921 0.085362 1.02216
              CHANNELS 3 Zrotation Xrotation Yrotation
              End Site
              {
                OFFSET -16.6312 -0.6 1.50291
              }
            }
          }
        }
      }
    }
  }
  JOINT LeftUpLeg
  {
    OFFSET 8.9458 -8.66707 0.101652
    CHANNELS 3 Zrotation Xrotation Yrotation
    JOINT LeftLeg
    {
      OFFSET 0 -44.4227 1.3727
      CHANNELS 3 Zrotation Xrotation Yrotation
      JOINT LeftFoot
      {
        OFFSET -0.253549 -42.0924 -1.46059
        CHANNELS 3 Zrotation Xrotation Yrotation
        JOINT LeftToes
        {
          OFFSET -0.04 -4.41509 8.4991
          CHANNELS 3 Zrotation Xrotation Yrotation
          End Site
          {
            OFFSET 0.08 -0.047448 9.77979
          }
        }
      }
    }
  }
}
MOTION
Frames:	9
Frame Time:	0.0166667
-112.16 92.6164 -4.73574 1.52317 8.52464 -165.534 -16.8158 -19.0602 3.14869 5.78247 22.0861 -12.5247 27.4609 37.7226 -11.0056 -32.213 -30.8128 5.61051 0.624795 9.59337 -3.11586 -2.30763 19.0335 -5.66276 15.6825 -6.0959 -26.0996 -3.97569e-016 0 -0 -67.8545 -7.09238 -59.5617 12.1478 26.194 -125.283 -0.539793 9.76194 16.5249 24.3495 -0.932146 -5.88659 69.8159 -35.1079 43.5834 -8.33976 26.5246 131.426 -5.345 9.73338 -0.116711 29.742 -5.10415 -4.83884 -12.3222 28.7273 3.07494 -2.06917 17.3682 0.330014 43.7635 -45.021 20.696 
-111.652 92.6219 -4.95111 2.0071 9.24817 -165.804 -17.2803 -19.1316 2.87248 7.04859 22.9173 -10.231 34.2209 38.7327 -14.1875 -34.2784 -33.2579 6.47762 0.676433 9.91849 -3.41462 -1.71479 19.7229 -6.41258 15.5599 -6.60702 -25.4275 -2.5842e-015 -3.18055e-015 -1.59028e-015 -69.8415 -7.50543 -63.6015 13.5663 26.5879 -125.61 -0.494407 9.76622 16.5723 25.0317 -0.868953 -5.55394 71.0134 -36.1306 44.8619 -8.85676 27.5728 131.722 -6.93253 9.66871 0.0160201 28.4217 -5.8953 -4.20828 -9.88511 27.6698 -2.83482 -2.83452 13.2488 0.419802 39.615 -43.6821 16.1794 
-111.227 92.394 -5.15419 2.94597 10.0357 -166.222 -17.5713 -19.6231 1.92536 7.80551 24.5046 -5.61756 43.1984 38.8019 -18.2423 -35.7066 -36.0274 8.90612 0.966286 10.3049 -3.69396 -0.522148 20.5043 -7.16639 14.8092 -7.32211 -24.9847 2.38542e-015 -3.18055e-015 1.19271e-015 -71.9437 -7.68056 -66.9546 15.6604 26.3233 -126.158 -1.12914 9.68361 17.5242 24.9759 -0.712687 -4.97771 71.7168 -37.0387 45.8462 -9.25768 27.8365 132.198 -8.53879 9.59761 0.177683 27.5618 -6.31968 -4.45901 -7.30376 26.5371 -5.80405 -1.14041 12.4875 0.109092 37.8184 -42.9276 14.3381 
-110.828 91.9426 -5.46538 4.26001 10.6999 -166.668 -17.6491 -20.5175 0.966048 8.2862 26.9174 0.376055 51.2637 36.9246 -21.129 -35.1392 -37.7019 12.7291 1.52027 10.6787 -3.92757 1.06363 21.213 -7.85558 13.6219 -8.32165 -24.9068 1.98785e-015 -3.18055e-015 -0 -74.031 -7.81394 -69.493 17.8598 26.0945 -126.572 -2.34736 9.49876 19.2231 24.316 -0.505172 -4.2593 71.7036 -37.9987 46.5154 -9.35088 27.4064 132.762 -9.93111 9.51084 0.587005 27.3525 -6.50707 -5.52958 -4.89738 25.6917 -5.33934 2.56483 14.8037 -0.605079 39.9239 -43.8842 16.3658 
-110.384 91.2956 -5.95699 5.69834 11.1109 -166.892 -17.7848 -21.6061 0.541338 8.93016 29.9267 5.25443 55.5286 34.3274 -21.7717 -33.8572 -38.5132 16.3369 2.30988 10.9474 -4.11892 2.67009 21.674 -8.42541 12.3943 -9.42963 -25.3109 -1.59028e-015 6.36111e-015 3.97569e-016 -75.6006 -7.88135 -71.0465 19.6733 26.2092 -126.527 -3.66888 9.25909 21.006 23.5511 -0.358151 -3.7503 70.5644 -38.991 46.7904 -9.10875 26.278 133.355 -10.7786 9.39687 1.48311 27.8073 -6.54597 -7.22253 -2.91536 25.1143 -2.31307 7.20517 18.6434 -1.77705 45.5977 -46.0263 21.8742 
-109.823 90.5248 -6.64263 6.8927 11.2493 -166.588 -18.4076 -22.4791 0.920987 10.2726 33.0375 5.83229 54.6858 33.146 -20.786 -34.1155 -39.5924 17.5914 3.19614 11.0574 -4.28066 3.96134 21.8122 -8.85055 11.4684 -10.3538 -26.3015 1.78906e-015 3.18055e-015 -5.96354e-016 -76.0525 -7.72735 -71.4822 20.7674 26.539 -125.854 -4.51204 9.08144 22.2021 23.014 -0.34446 -3.7345 68.4221 -40.3633 46.7589 -8.66865 24.6085 134.065 -10.6527 9.29013 2.79906 28.6385 -6.5616 -9.09394 -1.36841 24.605 1.47483 11.7338 22.5037 -3.24156 53.0023 -47.8879 29.3116 
-109.108 89.7112 -7.49282 7.50287 11.1886 -165.544 -19.8666 -22.701 2.19711 12.8377 35.692 0.167568 48.2026 33.9422 -18.3831 -36.3584 -40.415 14.9733 4.02984 11.0118 -4.41793 4.72678 21.6716 -9.11382 11.0134 -10.9402 -27.9441 -5.96354e-016 6.36111e-015 3.97569e-016 -75.0726 -7.27668 -70.7778 20.9854 26.7791 -124.707 -4.68357 9.03666 22.5794 22.7159 -0.456857 -4.21199 66.3263 -43.1977 46.9002 -8.26801 23.051 135.015 -9.24033 9.28121 4.10343 29.3133 -6.74091 -10.5552 0.0751417 24.1165 4.27571 15.3852 25.7009 -4.66977 59.8585 -48.8456 36.3377 
-108.265 88.9091 -8.4658 7.3441 10.9989 -163.804 -22.1763 -21.9657 4.29432 16.6357 37.3299 -10.4212 36.8226 34.351 -13.8524 -36.8357 -37.7416 9.87258 4.70954 10.847 -4.49336 4.8767 21.3593 -9.13075 10.9759 -11.3241 -30.2438 3.97569e-016 -1.27222e-014 -3.97569e-016 -72.6984 -6.58435 -69.0415 20.4744 26.6364 -123.504 -4.38882 9.09729 22.2761 22.4736 -0.637522 -4.97331 66.074 -48.845 48.3305 -8.10595 22.6259 136.014 -6.68478 9.43335 4.76874 29.2655 -7.24765 -11.2578 1.85415 23.9308 5.12787 17.6319 27.8752 -5.69295 64.7181 -49.2106 41.2603 
-107.383 88.1317 -9.53382 6.48287 10.6815 -161.772 -24.8717 -20.2752 6.84283 20.5639 37.6188 -21.6518 24.7819 31.5887 -8.52998 -30.8915 -29.8481 6.23062 5.17666 10.6041 -4.39653 4.45528 20.9685 -8.69549 11.0487 -11.7789 -33.1293 3.97569e-016 3.18055e-015 2.38542e-015 -69.1915 -5.7663 -66.4515 19.6485 25.9014 -122.674 -3.9347 9.19772 21.5612 21.9896 -0.816938 -5.77998 70.165 -57.5324 53.3975 -8.30331 23.9875 136.341 -3.76515 9.67424 4.32567 28.2226 -8.0661 -11.3639 4.11953 24.4248 4.24939 18.4711 28.8292 -6.12391 67.2257 -49.2843 43.8089 
